<svg width="40" height="40" viewBox="0 0 40 40" fill="none" xmlns="http://www.w3.org/2000/svg">
<g id="Icon Tools">
<path id="Vector" d="M21.7013 14.3036C21.5181 14.4906 21.4155 14.7419 21.4155 15.0036C21.4155 15.2654 21.5181 15.5167 21.7013 15.7036L23.3013 17.3036C23.4882 17.4869 23.7396 17.5895 24.0013 17.5895C24.2631 17.5895 24.5144 17.4869 24.7013 17.3036L28.4713 13.5336C28.9742 14.6448 29.1264 15.8829 28.9078 17.0828C28.6892 18.2827 28.11 19.3875 27.2476 20.2499C26.3852 21.1124 25.2804 21.6915 24.0805 21.9101C22.8806 22.1287 21.6425 21.9765 20.5313 21.4736L13.6213 28.3836C13.2235 28.7815 12.6839 29.005 12.1213 29.005C11.5587 29.005 11.0191 28.7815 10.6213 28.3836C10.2235 27.9858 10 27.4462 10 26.8836C10 26.321 10.2235 25.7815 10.6213 25.3836L17.5313 18.4736C17.0285 17.3625 16.8762 16.1244 17.0949 14.9245C17.3135 13.7246 17.8926 12.6198 18.755 11.7574C19.6175 10.8949 20.7223 10.3158 21.9222 10.0972C23.1221 9.87856 24.3601 10.0308 25.4713 10.5336L21.7113 14.2936L21.7013 14.3036Z" stroke="#7B8AA0" stroke-width="2" stroke-linecap="round" stroke-linejoin="round"/>
</g>
</svg>
